<?xml version="1.0" encoding="iso-8859-1"?>
<!-- Generator: Adobe Illustrator 19.0.0, SVG Export Plug-In . SVG Version: 6.00 Build 0)  -->
<svg 
fill="#F99650"
version="1.1" id="Capa_1" xmlns="http://www.w3.org/2000/svg" xmlns:xlink="http://www.w3.org/1999/xlink" x="0px" y="0px"
	 viewBox="0 0 490 490" style="enable-background:new 0 0 490 490;" xml:space="preserve">
<g>
	<path d="M57.446,116.014C25.769,116.014,0,89.991,0,58.002C0,26.023,25.769,0,57.446,0c31.677,0,57.451,26.023,57.451,58.002
		C114.896,89.991,89.123,116.014,57.446,116.014z M57.446,20.851c-20.287,0-36.795,16.666-36.795,37.151
		c0,20.495,16.507,37.161,36.795,37.161c20.294,0,36.8-16.666,36.8-37.161C94.245,37.517,77.739,20.851,57.446,20.851z"/>
	<path d="M182.481,116.014c-31.678,0-57.451-26.023-57.451-58.012C125.03,26.023,150.803,0,182.481,0
		c31.677,0,57.451,26.023,57.451,58.002C239.931,89.991,214.158,116.014,182.481,116.014z M182.481,20.851
		c-20.293,0-36.8,16.666-36.8,37.151c0,20.495,16.507,37.161,36.8,37.161c20.292,0,36.8-16.666,36.8-37.161
		C219.28,37.517,202.773,20.851,182.481,20.851z"/>
	<path d="M307.515,116.014c-31.677,0-57.451-26.023-57.451-58.012C250.065,26.023,275.838,0,307.515,0
		c31.676,0,57.45,26.023,57.45,58.002C364.965,89.991,339.192,116.014,307.515,116.014z M307.515,20.851
		c-20.294,0-36.8,16.666-36.8,37.151c0,20.495,16.506,37.161,36.8,37.161c20.293,0,36.799-16.666,36.799-37.161
		C344.314,37.517,327.808,20.851,307.515,20.851z"/>
	<path d="M432.55,116.014c-31.677,0-57.451-26.023-57.451-58.012C375.1,26.023,400.873,0,432.55,0C464.227,0,490,26.023,490,58.002
		C490,89.991,464.227,116.014,432.55,116.014z M432.55,20.851c-20.294,0-36.8,16.666-36.8,37.151
		c0,20.495,16.506,37.161,36.8,37.161c20.293,0,36.799-16.666,36.799-37.161C469.349,37.517,452.843,20.851,432.55,20.851z"/>
	<path d="M244.998,303.002c-31.677,0-57.451-26.023-57.451-58.002s25.773-58.002,57.451-58.002s57.451,26.023,57.451,58.002
		S276.675,303.002,244.998,303.002z M244.998,207.849c-20.293,0-36.8,16.666-36.8,37.151c0,20.484,16.507,37.151,36.8,37.151
		c20.293,0,36.8-16.667,36.8-37.151C281.798,224.515,265.291,207.849,244.998,207.849z"/>
	<path d="M432.55,240.672c-31.677,0-57.451-26.022-57.451-58.001c0-31.99,25.773-58.013,57.451-58.013
		c31.676,0,57.45,26.023,57.45,58.013C490,214.65,464.227,240.672,432.55,240.672z M432.55,145.509
		c-20.294,0-36.8,16.666-36.8,37.162c0,20.484,16.506,37.15,36.8,37.15c20.293,0,36.799-16.666,36.799-37.15
		C469.349,162.175,452.843,145.509,432.55,145.509z"/>
	<path d="M432.55,365.342c-31.677,0-57.451-26.023-57.451-58.013c0-31.979,25.773-58.002,57.451-58.002
		c31.676,0,57.45,26.023,57.45,58.002C490,339.319,464.227,365.342,432.55,365.342z M432.55,270.178
		c-20.294,0-36.8,16.667-36.8,37.151c0,20.495,16.506,37.162,36.8,37.162c20.293,0,36.799-16.667,36.799-37.162
		C469.349,286.845,452.843,270.178,432.55,270.178z"/>
	<path d="M432.55,490c-31.677,0-57.451-26.023-57.451-58.002c0-31.99,25.773-58.012,57.451-58.012
		c31.676,0,57.45,26.022,57.45,58.012C490,463.977,464.227,490,432.55,490z M432.55,394.837c-20.294,0-36.8,16.666-36.8,37.161
		c0,20.485,16.506,37.151,36.8,37.151c20.293,0,36.799-16.666,36.799-37.151C469.349,411.503,452.843,394.837,432.55,394.837z"/>
</g>
<g>
</g>
<g>
</g>
<g>
</g>
<g>
</g>
<g>
</g>
<g>
</g>
<g>
</g>
<g>
</g>
<g>
</g>
<g>
</g>
<g>
</g>
<g>
</g>
<g>
</g>
<g>
</g>
<g>
</g>
</svg>
